<svg width="29" height="31" viewBox="0 0 29 31" fill="none" xmlns="http://www.w3.org/2000/svg">
<path d="M14.5001 30.9165C16.4709 30.9165 18.0834 29.529 18.0834 27.8332H10.9167C10.9167 29.529 12.5292 30.9165 14.5001 30.9165ZM25.2501 21.6665V13.9582C25.2501 9.22525 22.3297 5.26317 17.1876 4.21484V3.1665C17.1876 1.88692 15.9872 0.854004 14.5001 0.854004C13.013 0.854004 11.8126 1.88692 11.8126 3.1665V4.21484C6.68842 5.26317 3.75008 9.20984 3.75008 13.9582V21.6665L0.166748 24.7498V26.2915H28.8334V24.7498L25.2501 21.6665ZM21.6667 23.2082H7.33342V13.9582C7.33342 10.1348 10.0388 7.02067 14.5001 7.02067C18.9613 7.02067 21.6667 10.1348 21.6667 13.9582V23.2082Z" fill="black" fill-opacity="0.46"/>
</svg>
