<svg width="40" height="40" viewBox="0 0 40 40" fill="none" xmlns="http://www.w3.org/2000/svg">
<path d="M39.2918 6.36141L17.1798 28.4927L9.40711 20.72L11.52 18.6071L16.8264 23.9136L17.18 24.2671L17.5336 23.9136L37.1813 4.26585L39.2918 6.36141ZM36.5 20C36.5 18.8338 36.3589 17.6895 36.1272 16.5999L38.5837 14.1434C39.1685 15.996 39.5 17.9613 39.5 20C39.5 30.7639 30.7639 39.5 20 39.5C9.23614 39.5 0.5 30.7639 0.5 20C0.5 9.23614 9.23614 0.5 20 0.5C23.9397 0.5 27.5976 1.67514 30.6596 3.69331L28.4867 5.86617C26.0049 4.36727 23.1151 3.5 20 3.5C10.8839 3.5 3.5 10.8839 3.5 20C3.5 29.1161 10.8839 36.5 20 36.5C29.1161 36.5 36.5 29.1161 36.5 20Z" fill="#01BD4E" stroke="#01BD4E"/>
</svg>
