<svg width="21" height="21" viewBox="0 0 21 21" fill="none" xmlns="http://www.w3.org/2000/svg">
<path fill-rule="evenodd" clip-rule="evenodd" d="M7.929 7.469H11.643V9.319C12.178 8.255 13.55 7.299 15.611 7.299C19.562 7.299 20.5 9.417 20.5 13.303V20.5H16.5V14.188C16.5 11.975 15.965 10.727 14.603 10.727C12.714 10.727 11.929 12.072 11.929 14.187V20.5H7.929V7.469V7.469ZM1.07 20.33H5.07V7.299H1.07V20.33V20.33ZM5.643 3.05C5.64315 3.38528 5.57666 3.71724 5.44739 4.02659C5.31812 4.33594 5.12865 4.61651 4.89 4.852C4.4064 5.33262 3.75181 5.60165 3.07 5.6C2.38939 5.59954 1.73631 5.3312 1.252 4.853C1.01421 4.61671 0.825386 4.33582 0.696344 4.02643C0.567301 3.71704 0.500579 3.38522 0.5 3.05C0.5 2.373 0.77 1.725 1.253 1.247C1.73689 0.768158 2.39024 0.499701 3.071 0.5C3.753 0.5 4.407 0.769 4.89 1.247C5.372 1.725 5.643 2.373 5.643 3.05Z" fill="#01BD4E"/>
</svg>
