<svg width="14" height="12" viewBox="0 0 14 12" fill="none" xmlns="http://www.w3.org/2000/svg">
<path d="M7.00878 6.21852L2.23206 10.9952C1.90191 11.3254 1.36804 11.3254 1.04139 10.9952L0.247617 10.2015C-0.0825389 9.8713 -0.0825389 9.33743 0.247617 9.01079L3.63347 5.62494L0.247617 2.23909C-0.0825389 1.90893 -0.0825389 1.37506 0.247617 1.04842L1.03788 0.247617C1.36804 -0.0825389 1.90191 -0.0825389 2.22855 0.247617L7.00527 5.02434C7.33894 5.35449 7.33894 5.88836 7.00878 6.21852ZM13.7524 5.02434L8.97566 0.247617C8.64551 -0.0825389 8.11164 -0.0825389 7.785 0.247617L6.99122 1.04139C6.66106 1.37155 6.66106 1.90542 6.99122 2.23206L10.3771 5.61791L6.99122 9.00376C6.66106 9.33392 6.66106 9.86779 6.99122 10.1944L7.785 10.9882C8.11515 11.3184 8.64902 11.3184 8.97566 10.9882L13.7524 6.21149C14.0825 5.88836 14.0825 5.35449 13.7524 5.02434Z" fill="#01BD4E"/>
</svg>
