<svg width="17" height="17" viewBox="0 0 17 17" fill="none" xmlns="http://www.w3.org/2000/svg">
<path d="M16.125 8.771C16.125 10.8927 15.2821 12.9276 13.7819 14.4279C12.2816 15.9281 10.2467 16.771 8.125 16.771C6.00327 16.771 3.96844 15.9281 2.46815 14.4279C0.967855 12.9276 0.125 10.8927 0.125 8.771C0.125 6.64926 0.967855 4.61443 2.46815 3.11414C3.96844 1.61385 6.00327 0.770996 8.125 0.770996C10.2467 0.770996 12.2816 1.61385 13.7819 3.11414C15.2821 4.61443 16.125 6.64926 16.125 8.771ZM12.155 5.741C12.0836 5.66981 11.9985 5.61377 11.9049 5.57621C11.8113 5.53865 11.7111 5.52035 11.6103 5.52241C11.5095 5.52446 11.4101 5.54683 11.3182 5.58816C11.2262 5.6295 11.1435 5.68896 11.075 5.763L7.602 10.188L5.509 8.094C5.36683 7.96152 5.17878 7.88939 4.98448 7.89282C4.79018 7.89625 4.60479 7.97496 4.46738 8.11237C4.32997 8.24979 4.25125 8.43517 4.24783 8.62947C4.2444 8.82377 4.31652 9.01182 4.449 9.154L7.095 11.801C7.16628 11.8721 7.25116 11.9282 7.34458 11.9658C7.438 12.0035 7.53805 12.0219 7.63875 12.0201C7.73944 12.0182 7.83874 11.9961 7.9307 11.955C8.02266 11.9139 8.1054 11.8547 8.174 11.781L12.166 6.791C12.3021 6.64949 12.3773 6.46027 12.3754 6.26395C12.3735 6.06764 12.2948 5.87988 12.156 5.741H12.155Z" fill="#01BD4E"/>
</svg>
