<svg width="23" height="19" viewBox="0 0 23 19" fill="none" xmlns="http://www.w3.org/2000/svg">
<path d="M7.27218 18.5C15.632 18.5 20.2052 11.5731 20.2052 5.57669C20.2052 5.38285 20.2052 5.18625 20.1969 4.99241C21.0872 4.34789 21.8556 3.54993 22.4661 2.63592C21.6345 3.00262 20.7531 3.2443 19.8507 3.35312C20.8013 2.78495 21.5132 1.891 21.8542 0.837403C20.9611 1.36647 19.9837 1.73787 18.9646 1.93534C18.2795 1.20572 17.373 0.722372 16.3854 0.560159C15.3977 0.397946 14.3842 0.565924 13.5017 1.03807C12.6192 1.51023 11.9171 2.2602 11.504 3.17182C11.0909 4.08345 10.9899 5.10585 11.2167 6.08066C9.40956 5.99005 7.6416 5.52057 6.02754 4.70269C4.41348 3.8848 2.98936 2.73678 1.84755 1.33307C1.2679 2.33421 1.091 3.51843 1.35278 4.64526C1.61456 5.77209 2.29539 6.75705 3.25701 7.40013C2.53641 7.37565 1.83166 7.18215 1.19958 6.83524V6.89754C1.20083 7.94631 1.56414 8.96247 2.22812 9.77429C2.8921 10.5861 3.81602 11.1438 4.8437 11.353C4.45362 11.4605 4.05067 11.514 3.64607 11.5122C3.36083 11.5131 3.07616 11.4867 2.79596 11.4333C3.08642 12.3361 3.65198 13.1254 4.41345 13.6908C5.17491 14.2561 6.09412 14.5691 7.04235 14.5859C5.43151 15.8511 3.44171 16.5373 1.39342 16.534C1.0325 16.5355 0.671828 16.5147 0.313477 16.4716C2.39239 17.797 4.80673 18.5008 7.27218 18.5Z" fill="#01BD4E"/>
</svg>
