<svg width="28" height="26" viewBox="0 0 28 26" fill="none" xmlns="http://www.w3.org/2000/svg">
<path d="M19.8958 16.4167H18.6779L18.2463 16.0229C19.7571 14.3604 20.6667 12.2021 20.6667 9.85417C20.6667 4.61875 16.1804 0.375 10.6458 0.375C5.11125 0.375 0.625 4.61875 0.625 9.85417C0.625 15.0896 5.11125 19.3333 10.6458 19.3333C13.1279 19.3333 15.4096 18.4729 17.1671 17.0438L17.5833 17.4521V18.6042L25.2917 25.8813L27.5888 23.7083L19.8958 16.4167ZM10.6458 16.4167C6.80708 16.4167 3.70833 13.4854 3.70833 9.85417C3.70833 6.22292 6.80708 3.29167 10.6458 3.29167C14.4846 3.29167 17.5833 6.22292 17.5833 9.85417C17.5833 13.4854 14.4846 16.4167 10.6458 16.4167Z" fill="black" fill-opacity="0.49"/>
</svg>
